:version 1.10
:name ASF
:units
  mass 1
  length 1
  angle deg
:documentation
  ASF file generated by Kaydara
:root
  axis xyz
  order  tx ty tz rx ry rz
  position 0 0 0
  orientation 0 0 0
:bonedata
  begin
    id 1
    name SpineDummy
    direction 0.999998 -0.00179978 1.38929e-006
    length 3.60008
    axis 0 0 0 xyz
  end
  begin
    id 2
    name Spine
    direction 0.964365 0.262802 0.0305839
    length 8.13928
    axis 1.33928 -1.75354 15.2838 xyz
    dof rx ry rz
  end
  begin
    id 3
    name Spine1
    direction 0.811168 0.572065 0.12144
    length 7.14954
    axis 2.2224 -6.9761 35.2157 xyz
    dof rx ry rz
  end
  begin
    id 4
    name Neck
    direction 0 0 0
    length 0
    axis 2.2224 -6.9761 35.2157 xyz
    dof rx ry rz
  end
  begin
    id 5
    name HeadDummy
    direction 0.810939 0.572387 0.121455
    length 3.55534
    axis 2.2224 -6.9761 35.2157 xyz
  end
  begin
    id 6
    name Head
    direction 0.998226 -0.000232542 0.0595419
    length 7.35666
    axis -3.03688 -3.41352 -0.0133467 xyz
    dof rx ry rz
  end
  begin
    id 7
    name R_ClavicleDummy
    direction 0.531669 -0.194489 -0.824319
    length 2.49392
    axis 2.2224 -6.9761 35.2157 xyz
  end
  begin
    id 8
    name R_Clavicle
    direction -0.155119 0.0480802 -0.986725
    length 4.485
    axis -54.2764 80.6538 162.779 xyz
    dof rx ry rz
  end
  begin
    id 9
    name R_UpperArm
    direction -0.955567 0.200068 -0.216484
    length 10.1122
    axis -72.9943 12.5026 168.175 xyz
    dof rx ry rz
  end
  begin
    id 10
    name R_Forearm
    direction -0.61433 0.385743 0.688332
    length 9.39148
    axis -117.015 -43.4982 147.875 xyz
    dof rx ry rz
  end
  begin
    id 11
    name R_Hand
    direction -0.699429 0.0170333 0.714499
    length 3.66324
    axis -45.0303 -36.7097 175.478 xyz
    dof rx ry rz
  end
  begin
    id 12
    name L_ClavicleDummy
    direction 0.40287 -0.36502 0.839319
    length 2.49392
    axis 2.2224 -6.9761 35.2157 xyz
  end
  begin
    id 13
    name L_Clavicle
    direction -0.231271 -0.0726419 0.970174
    length 4.485
    axis 18.4357 -75.9711 -162.563 xyz
    dof rx ry rz
  end
  begin
    id 14
    name L_UpperArm
    direction -0.917494 0.144359 0.370629
    length 10.1122
    axis 56.0417 -21.7544 171.058 xyz
    dof rx ry rz
  end
  begin
    id 15
    name L_Forearm
    direction -0.496786 0.615074 -0.612281
    length 9.39148
    axis 89.8094 37.7546 128.927 xyz
    dof rx ry rz
  end
  begin
    id 16
    name L_Hand
    direction -0.409932 0.64962 -0.640274
    length 3.66324
    axis -0.424369 32.133 128.52 xyz
    dof rx ry rz
  end
  begin
    id 17
    name L_ThighDummy
    direction -1.84081e-006 1.87549e-006 1
    length 3.13049
    axis 0 0 0 xyz
  end
  begin
    id 18
    name L_Thigh
    direction -0.947739 0.307978 0.083308
    length 17.9961
    axis 173.219 -4.77873 161.998 xyz
    dof rx ry rz
  end
  begin
    id 19
    name L_Calf
    direction -0.728814 -0.684427 0.0197583
    length 13.3367
    axis 167.331 -1.13214 -136.799 xyz
    dof rx ry rz
  end
  begin
    id 20
    name L_Foot
    direction -0.9028 0.418719 0.0981191
    length 5.8674
    axis 163.436 11.5135 -155.37 xyz
    dof rx ry rz
  end
  begin
    id 21
    name L_Toe0
    direction -0.35341 0.886259 0.299411
    length 4.75286
    axis 169.316 -17.4222 111.74 xyz
    dof rx ry rz
  end
  begin
    id 22
    name R_ThighDummy
    direction 9.32778e-007 -8.82053e-007 -1
    length 3.13049
    axis 0 0 0 xyz
  end
  begin
    id 23
    name R_Thigh
    direction -0.925064 0.37528 -0.0585023
    length 17.9961
    axis -178.698 3.35385 157.919 xyz
    dof rx ry rz
  end
  begin
    id 24
    name R_Calf
    direction -0.68969 -0.718776 -0.0876886
    length 13.3367
    axis -160.504 5.03065 -133.817 xyz
    dof rx ry rz
  end
  begin
    id 25
    name R_Foot
    direction -0.857405 0.418858 -0.299022
    length 5.8674
    axis -161.328 4.38911 -154.413 xyz
    dof rx ry rz
  end
  begin
    id 26
    name R_Toe0
    direction -0.100745 0.952789 -0.286433
    length 4.75286
    axis 171.683 16.6445 96.0359 xyz
    dof rx ry rz
  end
:hierarchy
  begin
    root SpineDummy L_ThighDummy R_ThighDummy
    SpineDummy Spine
    Spine Spine1
    Spine1 Neck
    Neck HeadDummy R_ClavicleDummy L_ClavicleDummy
    HeadDummy Head
    R_ClavicleDummy R_Clavicle
    R_Clavicle R_UpperArm
    R_UpperArm R_Forearm
    R_Forearm R_Hand
    L_ClavicleDummy L_Clavicle
    L_Clavicle L_UpperArm
    L_UpperArm L_Forearm
    L_Forearm L_Hand
    L_ThighDummy L_Thigh
    L_Thigh L_Calf
    L_Calf L_Foot
    L_Foot L_Toe0
    R_ThighDummy R_Thigh
    R_Thigh R_Calf
    R_Calf R_Foot
    R_Foot R_Toe0
  end

:SAMPLES-PER-SECOND 30
:FULLY-SPECIFIED
:DEGREES
142
root  -1.58777 33.3282 45.5599 94.9213 6.16636 93.6179
Spine  -4.42192 -9.95812 -14.0518
Spine1  -3.73627 12.6504 1.33223
Neck  3.97569e-016 0 -2.38542e-015
Head  12.2696 -3.3074 28.1182
R_Clavicle  0.417435 -21.3119 1.53399
R_UpperArm  40.3396 -12.6217 41.2131
R_Forearm  5.23213 -38.956 25.7302
R_Hand  -0.578971 8.95647 -15.974
L_Clavicle  -0.486098 16.7321 -1.8055
L_UpperArm  0.801836 -0.291575 11.1868
L_Forearm  -10.4685 22.4977 28.568
L_Hand  -0.135681 -0.0639767 -2.79981
L_Thigh  -3.64941 -2.79397 -25.5493
L_Calf  1.04336 -6.66738 34.9545
L_Foot  4.59247 9.12227 8.21522
L_Toe0  0.497798 0.0350253 -6.14261
R_Thigh  18.2046 -5.81777 -2.89591
R_Calf  -0.34828 14.4032 43.9556
R_Foot  2.32603 2.88726 -17.4597
R_Toe0  -1.78853 -0.272788 -17.3235
143
root  -1.58996 33.1832 46.5562 94.4706 5.90981 93.6073
Spine  -4.86831 -10.6983 -14.3069
Spine1  -4.11828 15.016 1.17899
Neck  3.97569e-016 0 -2.38542e-015
Head  12.5815 -3.79885 27.0323
R_Clavicle  0.417427 -20.9039 1.72551
R_UpperArm  36.8885 -12.0842 41.4712
R_Forearm  9.78577 -35.582 23.2868
R_Hand  -0.623985 9.24526 -16.3858
L_Clavicle  -0.486335 16.733 -1.83059
L_UpperArm  3.46175 -0.565847 11.5867
L_Forearm  -10.9399 23.4233 30.0222
L_Hand  -0.135236 0.243617 -2.6207
L_Thigh  -4.55407 -2.44378 -27.6261
L_Calf  1.75304 -6.44381 36.0284
L_Foot  4.76042 8.74693 9.1971
L_Toe0  0.514158 0.036529 -6.12816
R_Thigh  5.57381 -5.14994 -3.78587
R_Calf  14.8095 21.0782 51.0194
R_Foot  2.38116 -0.713613 -22.035
R_Toe0  -1.78853 -0.272788 -17.3235
144
root  -1.66549 33.0001 47.5945 92.7989 6.67427 92.7094
Spine  -4.78749 -8.95197 -13.7061
Spine1  -3.93081 15.8019 1.69144
Neck  3.97569e-016 0 -2.38542e-015
Head  13.2085 -4.78534 25.4497
R_Clavicle  0.421613 -21.0062 2.05526
R_UpperArm  32.6334 -9.96805 40.5712
R_Forearm  13.2634 -33.1138 22.0871
R_Hand  -0.80955 9.34239 -17.7268
L_Clavicle  -0.529762 17.7655 -1.54154
L_UpperArm  5.26358 -1.18607 11.7622
L_Forearm  -10.9408 24.8594 32.3848
L_Hand  -0.107973 0.422985 -2.02838
L_Thigh  -6.84061 -1.41988 -29.3239
L_Calf  2.73873 -5.04025 33.9786
L_Foot  4.66391 7.58919 10.2072
L_Toe0  1.22726 0.0182082 -5.49663
R_Thigh  3.76785 -2.22692 -3.8983
R_Calf  15.7448 19.2349 50.0112
R_Foot  2.1115 -8.36881 -24.6629
R_Toe0  -1.78853 -0.272788 -17.3235
145
root  -1.78096 32.8017 48.666 89.4119 7.7626 90.9439
Spine  -4.23028 -4.91209 -13.1217
Spine1  -3.17789 14.8026 3.43371
Neck  3.97569e-016 0 -2.38542e-015
Head  14.9459 -6.18049 23.3262
R_Clavicle  0.422379 -21.334 2.1349
R_UpperArm  31.0297 -6.1339 37.8902
R_Forearm  13.2062 -33.1996 21.8164
R_Hand  -1.02458 9.35835 -19.2562
L_Clavicle  -0.597133 19.4518 -1.36239
L_UpperArm  2.06603 -1.07772 12.4692
L_Forearm  -9.14155 27.1384 35.0203
L_Hand  -0.0881649 -0.169374 -1.85292
L_Thigh  -8.1764 -0.0751856 -29.3728
L_Calf  1.79763 -3.57667 27.2939
L_Foot  3.65387 4.21662 10.6495
L_Toe0  4.16475 -0.208883 -3.10716
R_Thigh  4.85178 1.80794 -3.58402
R_Calf  10.7624 15.219 44.0461
R_Foot  1.44412 -13.4477 -23.132
R_Toe0  -1.78853 -0.272788 -17.3235
146
root  -1.90437 32.601 49.7023 85.5311 8.01917 89.2869
Spine  -3.79956 -1.20086 -13.1163
Spine1  -2.56643 13.4696 5.53214
Neck  3.97569e-016 0 -2.38542e-015
Head  17.6938 -7.21689 21.975
R_Clavicle  0.415072 -20.6467 1.60238
R_UpperArm  32.1597 -2.75913 33.5109
R_Forearm  10.0533 -35.0515 22.0755
R_Hand  -1.0211 9.54945 -19.2459
L_Clavicle  -0.628519 19.8872 -1.70504
L_UpperArm  -9.4759 1.60676 13.9299
L_Forearm  -4.40095 31.1691 37.083
L_Hand  -0.0886356 -1.65699 -2.66391
L_Thigh  -8.66418 0.91401 -26.6434
L_Calf  -0.221921 -2.27627 16.5195
L_Foot  1.95813 0.934563 8.00252
L_Toe0  6.62674 -0.748228 1.05879
R_Thigh  6.66958 4.79958 -2.78148
R_Calf  4.99982 11.3731 38.0149
R_Foot  0.538415 -12.1042 -18.2489
R_Toe0  -1.78853 -0.272788 -17.3235
147
root  -2.06482 32.3455 50.6787 82.6716 7.74872 88.0548
Spine  -3.91632 0.48364 -12.8796
Spine1  -2.42293 13.5703 6.58762
Neck  3.97569e-016 0 -2.38542e-015
Head  20.3137 -7.35105 22.6193
R_Clavicle  0.377802 -18.3328 0.902312
R_UpperArm  33.5498 -1.70221 28.2833
R_Forearm  6.69092 -36.086 22.4082
R_Hand  -0.678599 9.64219 -16.8832
L_Clavicle  -0.575778 18.3592 -2.45325
L_UpperArm  -21.2218 6.80755 15.6299
L_Forearm  -1.05797 34.8488 40.0474
L_Hand  -0.0764694 -2.94286 -3.72967
L_Thigh  -8.2506 1.72559 -21.6159
L_Calf  -2.10351 -0.54284 3.60477
L_Foot  0.416742 1.39171 0.507439
L_Toe0  2.38143 -0.652781 6.61285
R_Thigh  5.70786 6.64435 -1.68344
R_Calf  3.0066 9.73088 32.2792
R_Foot  -0.0220738 -8.85429 -13.2149
R_Toe0  -1.82656 -0.272816 -17.3452
